<svg width="458" height="70" viewBox="0 0 458 70" fill="none" xmlns="http://www.w3.org/2000/svg">
<path d="M0.672 69V0.359997H5.28V64.776H36.864V69H0.672ZM72.822 69.96C63.926 69.96 56.47 66.856 50.454 60.648C44.438 54.44 41.43 46.856 41.43 37.896C41.43 28.872 44.438 21.256 50.454 15.048C56.47 8.84 63.926 5.736 72.822 5.736C81.718 5.736 89.174 8.84 95.19 15.048C101.206 21.256 104.214 28.872 104.214 37.896C104.214 46.856 101.206 54.44 95.19 60.648C89.174 66.856 81.718 69.96 72.822 69.96ZM72.822 9.672C65.142 9.672 58.742 12.392 53.622 17.832C48.566 23.272 46.038 29.96 46.038 37.896C46.038 45.768 48.566 52.424 53.622 57.864C58.742 63.24 65.142 65.928 72.822 65.928C80.566 65.928 86.966 63.24 92.022 57.864C97.078 52.424 99.606 45.768 99.606 37.896C99.606 29.96 97.078 23.272 92.022 17.832C86.966 12.392 80.566 9.672 72.822 9.672ZM141.653 55.944L162.485 6.696H167.093L140.309 69.384H137.717L110.933 6.696H115.733L139.253 62.088C139.573 61.128 140.373 59.08 141.653 55.944ZM179.801 69V6.696H208.889V10.536H184.217V33.192H206.489V36.936H184.217V64.968H209.849V69H179.801ZM227.52 69V6.984C233.024 6.536 237.696 6.31199 241.536 6.31199C247.424 6.31199 252.288 7.848 256.128 10.92C259.968 13.928 261.888 18.248 261.888 23.88C261.888 27.656 260.8 31.144 258.624 34.344C256.448 37.544 253.984 40.136 251.232 42.12C258.848 52.232 263.552 58.28 265.344 60.264C268.992 64.04 272.96 66.184 277.248 66.696L277.152 69.672C273.568 69.608 270.656 69.096 268.416 68.136C266.176 67.112 263.936 65.416 261.696 63.048C259.52 60.68 254.688 54.312 247.2 43.944C242.016 43.944 236.928 43.784 231.936 43.464V69H227.52ZM244.8 40.296C247.296 40.296 249.984 38.632 252.864 35.304C255.744 31.976 257.184 28.104 257.184 23.688C257.184 19.272 255.68 15.912 252.672 13.608C249.664 11.304 245.76 10.152 240.96 10.152C238.4 10.152 235.392 10.28 231.936 10.536V39.816C236.544 40.136 240.832 40.296 244.8 40.296ZM285.83 6.984C290.374 6.6 295.046 6.408 299.846 6.408C304.646 6.408 308.742 7.56 312.134 9.86399C315.59 12.168 317.318 15.528 317.318 19.944C317.318 23.272 316.422 26.344 314.63 29.16C312.838 31.976 310.662 34.12 308.102 35.592C312.262 36.808 315.718 38.984 318.47 42.12C321.222 45.256 322.598 48.808 322.598 52.776C322.598 58.28 320.838 62.44 317.318 65.256C313.862 68.072 308.966 69.48 302.63 69.48C296.294 69.48 290.694 69.256 285.83 68.808V6.984ZM294.566 37.512L290.246 37.608V65.16C292.998 65.416 297.446 65.544 303.59 65.544C307.75 65.544 311.174 64.392 313.862 62.088C316.614 59.72 317.99 56.776 317.99 53.256C317.99 49.672 316.614 46.568 313.862 43.944C311.174 41.256 307.654 39.368 303.302 38.28C301.062 37.768 298.15 37.512 294.566 37.512ZM312.998 19.848C312.998 16.712 311.686 14.312 309.062 12.648C306.438 10.92 303.302 10.056 299.654 10.056C296.006 10.056 292.87 10.152 290.246 10.344V33.864C295.814 33.864 300.262 34.024 303.59 34.344C306.086 33 308.262 31.048 310.118 28.488C312.038 25.864 312.998 22.984 312.998 19.848ZM367.103 69.96C358.207 69.96 350.751 66.856 344.735 60.648C338.719 54.44 335.711 46.856 335.711 37.896C335.711 28.872 338.719 21.256 344.735 15.048C350.751 8.84 358.207 5.736 367.103 5.736C375.999 5.736 383.455 8.84 389.471 15.048C395.487 21.256 398.495 28.872 398.495 37.896C398.495 46.856 395.487 54.44 389.471 60.648C383.455 66.856 375.999 69.96 367.103 69.96ZM367.103 9.672C359.423 9.672 353.023 12.392 347.903 17.832C342.847 23.272 340.319 29.96 340.319 37.896C340.319 45.768 342.847 52.424 347.903 57.864C353.023 63.24 359.423 65.928 367.103 65.928C374.847 65.928 381.247 63.24 386.303 57.864C391.359 52.424 393.887 45.768 393.887 37.896C393.887 29.96 391.359 23.272 386.303 17.832C381.247 12.392 374.847 9.672 367.103 9.672ZM433.711 69H429.391V46.728L405.871 6.696H411.151L429.295 37.608C430.703 40.424 431.503 41.928 431.695 42.12C432.079 41.288 432.879 39.816 434.095 37.704L452.239 6.696H457.231L433.711 46.92V69Z" fill="black"/>
</svg>
